<svg xmlns="http://www.w3.org/2000/svg" xmlns:xlink="http://www.w3.org/1999/xlink" version="1.1" x="0px" y="0px" viewBox="0 0 100 100" enable-background="new 0 0 100 100" xml:space="preserve"><g><path d="M49.322,30.268c-0.016-0.014-0.035-0.023-0.052-0.036c-0.053-0.042-0.108-0.082-0.166-0.116   c-0.026-0.016-0.053-0.03-0.08-0.044c-0.067-0.035-0.136-0.064-0.208-0.088c-0.021-0.007-0.042-0.015-0.064-0.021   c-0.077-0.022-0.155-0.037-0.234-0.047c-0.023-0.002-0.046-0.006-0.069-0.008c-0.068-0.005-0.137-0.003-0.206,0.001   c-0.026,0.001-0.052-0.002-0.079,0c-0.016,0.002-0.031,0.008-0.047,0.01c-0.018,0.003-0.036,0.001-0.054,0.005   c-0.037,0.007-0.071,0.021-0.107,0.031c-0.046,0.012-0.094,0.023-0.138,0.04c-0.054,0.02-0.105,0.045-0.156,0.071   c-0.038,0.02-0.077,0.038-0.114,0.06c-0.051,0.032-0.099,0.069-0.146,0.107c-0.031,0.025-0.063,0.047-0.092,0.074   c-0.049,0.046-0.092,0.099-0.135,0.151c-0.018,0.021-0.04,0.04-0.056,0.062L14.728,75.425c-0.291,0.403-0.363,0.924-0.193,1.392   c0.17,0.467,0.561,0.819,1.042,0.94L58.238,88.53c0.119,0.03,0.24,0.045,0.36,0.045c0.002,0,0.003,0.001,0.005,0.001h0.001h0.001   c0.001,0,0.001,0,0.002,0c0.089-0.001,0.179-0.008,0.271-0.024c0.067-0.013,0.125-0.044,0.188-0.064   c0.049-0.017,0.096-0.028,0.142-0.049c0.16-0.071,0.31-0.16,0.433-0.278c0.001-0.002,0.004-0.002,0.006-0.004l0.007-0.006   l0.005-0.005l25.439-24.538c0.303-0.292,0.469-0.697,0.459-1.118c-0.011-0.42-0.197-0.816-0.515-1.093L49.322,30.268z    M59.574,84.058l-8.983-48.704l31.247,27.229L59.574,84.058z M18.453,75.389l29.046-40.264l9.208,49.925L18.453,75.389z"></path><path d="M25.126,25.1l8.698,6.127c0.263,0.185,0.564,0.274,0.862,0.274c0.472,0,0.936-0.222,1.228-0.636   c0.477-0.677,0.315-1.613-0.362-2.09l-8.698-6.127c-0.678-0.478-1.613-0.314-2.09,0.362C24.287,23.688,24.449,24.623,25.126,25.1z"></path><path d="M38.543,24.487c0.29,0.432,0.764,0.665,1.248,0.665c0.287,0,0.577-0.082,0.833-0.254c0.688-0.461,0.872-1.393,0.411-2.081   L34.303,12.77c-0.461-0.688-1.394-0.873-2.081-0.411c-0.688,0.461-0.872,1.393-0.411,2.081L38.543,24.487z"></path><path d="M56.85,25.285c0.168,0.061,0.34,0.09,0.51,0.09c0.613,0,1.189-0.38,1.41-0.99l3.795-10.491   c0.282-0.779-0.121-1.639-0.9-1.921c-0.775-0.281-1.638,0.121-1.92,0.9l-3.795,10.491C55.667,24.143,56.07,25.003,56.85,25.285z"></path><path d="M61.474,31.017c0.296,0.322,0.699,0.485,1.104,0.485c0.363,0,0.727-0.131,1.015-0.396l9.066-8.331   c0.61-0.561,0.65-1.509,0.09-2.119c-0.561-0.611-1.51-0.65-2.119-0.09l-9.066,8.331C60.953,29.458,60.913,30.406,61.474,31.017z"></path><path d="M46.071,20.821c0.088,0.765,0.737,1.328,1.488,1.328c0.058,0,0.115-0.003,0.174-0.01c0.823-0.095,1.413-0.839,1.318-1.662   L47.721,8.94c-0.095-0.823-0.845-1.415-1.662-1.318c-0.823,0.095-1.413,0.839-1.318,1.662L46.071,20.821z"></path></g></svg>