<svg xmlns="http://www.w3.org/2000/svg" xmlns:xlink="http://www.w3.org/1999/xlink" version="1.1" x="0px" y="0px" viewBox="0 0 42 42" enable-background="new 0 0 42 42" xml:space="preserve"><path d="M12.514,8l-6.441,8.21L21,33.532L35.927,16.21L29.486,8H12.514z M32.637,15.257l-5.129,0.57l1.803-4.809L32.637,15.257z   M12.688,11.017l1.803,4.809l-5.129-0.57L12.688,11.017z M24.613,17.999L21,28.837l-3.614-10.843L24.613,17.999z M17.943,16  L21,11.721L24.057,16H17.943z M25.723,14.892L22.229,10h5.328L25.723,14.892z M16.277,14.892L14.443,10h5.328L16.277,14.892z   M15.253,17.923l3.195,9.584L9.653,17.301L15.253,17.923z M26.746,17.923l5.601-0.622l-8.795,10.206L26.746,17.923z"></path></svg>